<?xml version="1.0" encoding="UTF-8" standalone="no"?>
<!DOCTYPE svg PUBLIC "-//W3C//DTD SVG 1.1//EN" "http://www.w3.org/Graphics/SVG/1.1/DTD/svg11.dtd">
<svg width="100%" height="100%" viewBox="0 0 72 72" version="1.1" xmlns="http://www.w3.org/2000/svg" xmlns:xlink="http://www.w3.org/1999/xlink" xml:space="preserve" xmlns:serif="http://www.serif.com/" style="fill-rule:evenodd;clip-rule:evenodd;stroke-linejoin:round;stroke-miterlimit:1.41421;">
    <g transform="matrix(1,0,0,1,-116.551,-51.8918)">
        <g transform="matrix(5.25589,0,0,10.9251,-424.307,750.659)">
            <g transform="matrix(0.099498,0,0,0.047867,95.9435,-63.9434)">
                <g id="Logo">
                    <g>
                        <g transform="matrix(1.35022,0,0,1.35022,-67.4394,-50.4502)">
                            <path d="M152.071,40.686C177.403,40.686 197.97,61.623 197.97,87.411C197.97,113.2 177.403,134.137 152.071,134.137C126.738,134.137 106.171,113.2 106.171,87.411C106.171,61.623 126.738,40.686 152.071,40.686ZM153.356,127.345L151.409,127.348L151.412,128.806L153.687,128.803L153.688,129.46L150.589,129.465L150.582,124.726L153.658,124.721L153.659,125.385L151.406,125.389L151.408,126.697L153.355,126.694L153.356,127.345ZM156.72,127.991C156.702,127.783 156.614,127.63 156.458,127.531C156.302,127.431 156.029,127.342 155.638,127.261C155.248,127.181 154.934,127.081 154.696,126.961C154.242,126.729 153.995,126.397 153.956,125.962C153.922,125.582 154.048,125.255 154.336,124.98C154.624,124.706 155.016,124.546 155.511,124.502C155.839,124.472 156.137,124.506 156.405,124.604C156.673,124.702 156.891,124.856 157.058,125.067C157.225,125.277 157.321,125.518 157.346,125.791L156.529,125.864C156.506,125.618 156.412,125.432 156.245,125.307C156.078,125.181 155.85,125.131 155.563,125.157C155.295,125.181 155.092,125.257 154.955,125.385C154.817,125.513 154.757,125.68 154.776,125.885C154.791,126.058 154.884,126.195 155.055,126.296C155.225,126.397 155.499,126.486 155.876,126.562C156.253,126.638 156.559,126.736 156.794,126.855C157.03,126.974 157.207,127.12 157.327,127.291C157.447,127.462 157.518,127.668 157.54,127.91C157.575,128.304 157.453,128.63 157.172,128.89C156.892,129.149 156.493,129.302 155.977,129.349C155.635,129.379 155.316,129.344 155.018,129.244C154.72,129.143 154.482,128.989 154.303,128.78C154.124,128.572 154.021,128.32 153.995,128.024L154.815,127.95C154.839,128.218 154.946,128.417 155.137,128.548C155.327,128.679 155.588,128.73 155.918,128.7C156.204,128.675 156.413,128.597 156.546,128.469C156.679,128.34 156.737,128.181 156.72,127.991ZM150.357,125.396L148.886,125.258L148.505,129.315L147.692,129.239L148.072,125.182L146.614,125.045L146.676,124.384L150.419,124.735L150.357,125.396ZM145.685,129.022L144.877,128.862L143.461,125.153L142.805,128.45L141.998,128.29L142.921,123.642L143.729,123.802L145.149,127.526L145.807,124.215L146.608,124.375L145.685,129.022ZM159.396,127.04C159.277,126.511 159.305,126.058 159.479,125.683C159.652,125.307 159.946,125.073 160.358,124.98C160.723,124.898 161.045,124.96 161.327,125.163L160.933,123.404L161.704,123.231L162.797,128.109L162.099,128.266L161.981,127.918C161.813,128.25 161.536,128.458 161.151,128.545C160.748,128.635 160.387,128.546 160.065,128.278C159.744,128.01 159.521,127.597 159.396,127.04ZM140.614,126.743L138.864,126.19L138.165,127.127L137.349,126.869L140.483,122.889L141.188,123.112L141.471,128.171L140.651,127.912L140.614,126.743ZM160.183,126.934C160.261,127.283 160.389,127.541 160.568,127.707C160.746,127.872 160.959,127.927 161.207,127.872C161.522,127.801 161.721,127.609 161.804,127.294L161.476,125.827C161.272,125.584 161.012,125.497 160.697,125.568C160.447,125.624 160.277,125.766 160.186,125.994C160.094,126.223 160.093,126.536 160.183,126.934ZM165.089,127.474C164.612,127.627 164.177,127.601 163.784,127.396C163.391,127.191 163.114,126.838 162.953,126.338L162.923,126.245C162.816,125.911 162.784,125.591 162.828,125.286C162.873,124.981 162.988,124.718 163.174,124.496C163.361,124.275 163.597,124.118 163.885,124.025C164.341,123.878 164.741,123.911 165.083,124.122C165.426,124.333 165.683,124.705 165.854,125.238L165.952,125.542L163.761,126.246C163.873,126.516 164.036,126.705 164.25,126.814C164.464,126.923 164.693,126.938 164.939,126.859C165.284,126.748 165.52,126.518 165.648,126.169L166.178,126.426C166.108,126.67 165.979,126.883 165.79,127.065C165.602,127.248 165.368,127.384 165.089,127.474ZM136.763,126.587L136.002,126.281L137.773,121.885L138.534,122.192L136.763,126.587ZM169.38,125.743L168.63,126.074L166.718,121.738L167.468,121.407L169.38,125.743ZM139.284,125.627L140.594,126.04L140.531,123.959L139.284,125.627ZM164.076,124.63C163.869,124.697 163.726,124.823 163.645,125.008C163.565,125.194 163.548,125.421 163.596,125.691L165.031,125.229L165.013,125.174C164.915,124.927 164.787,124.758 164.628,124.667C164.468,124.575 164.284,124.563 164.076,124.63ZM173.63,123.564L172.905,123.955L169.45,121.997L171.045,124.957L170.32,125.347L168.072,121.176L168.797,120.785L172.264,122.751L170.662,119.78L171.382,119.393L173.63,123.564ZM132.016,124.417L134.102,120.162L135.358,120.778C135.734,120.962 136.027,121.209 136.236,121.52C136.445,121.83 136.554,122.178 136.563,122.564C136.572,122.95 136.479,123.342 136.284,123.74L136.18,123.953C135.982,124.356 135.728,124.672 135.417,124.899C135.106,125.126 134.762,125.249 134.384,125.269C134.005,125.289 133.624,125.205 133.24,125.017L132.016,124.417ZM134.549,121.12L133.045,124.189L133.527,124.425C133.915,124.615 134.272,124.64 134.598,124.499C134.924,124.358 135.201,124.062 135.427,123.61L135.543,123.373C135.77,122.911 135.842,122.509 135.761,122.167C135.679,121.826 135.448,121.561 135.066,121.374L134.549,121.12ZM133.767,119.975L132.082,122.657C131.814,123.083 131.466,123.335 131.037,123.412C130.607,123.49 130.166,123.386 129.712,123.101C129.253,122.813 128.965,122.461 128.849,122.046C128.733,121.631 128.812,121.206 129.085,120.77L130.768,118.091L131.463,118.528L129.776,121.212C129.608,121.48 129.547,121.728 129.594,121.955C129.641,122.182 129.797,122.378 130.062,122.544C130.598,122.881 131.044,122.767 131.4,122.201L133.072,119.539L133.767,119.975ZM177.104,120.478C177.09,120.759 176.99,121.033 176.805,121.3C176.62,121.567 176.369,121.81 176.051,122.03C175.724,122.255 175.384,122.381 175.03,122.406C174.676,122.431 174.335,122.353 174.008,122.171C173.681,121.99 173.388,121.717 173.129,121.352L172.918,121.047C172.512,120.458 172.335,119.9 172.389,119.374C172.443,118.848 172.723,118.411 173.228,118.062C173.662,117.763 174.081,117.633 174.485,117.672C174.889,117.711 175.256,117.914 175.586,118.282L174.922,118.74C174.523,118.322 174.088,118.275 173.618,118.599C173.315,118.809 173.159,119.077 173.152,119.405C173.145,119.733 173.284,120.11 173.57,120.536L173.777,120.836C174.068,121.257 174.382,121.523 174.72,121.633C175.059,121.744 175.386,121.69 175.702,121.472C176.049,121.233 176.241,120.984 176.279,120.726L175.752,119.962L174.948,120.517L174.594,120.002L176.073,118.982L177.104,120.478ZM130.286,118.57L129.12,117.664L126.619,120.881L125.974,120.38L128.475,117.162L127.318,116.264L127.725,115.739L130.694,118.046L130.286,118.57ZM178.888,117.017L177.407,118.28L178.354,119.39L180.085,117.913L180.511,118.414L178.154,120.424L175.079,116.818L177.419,114.823L177.85,115.328L176.136,116.789L176.985,117.785L178.466,116.522L178.888,117.017ZM124.768,117.775C124.911,117.623 124.967,117.456 124.938,117.274C124.909,117.091 124.795,116.827 124.596,116.481C124.397,116.136 124.264,115.834 124.196,115.577C124.068,115.083 124.153,114.678 124.452,114.36C124.714,114.083 125.043,113.96 125.44,113.994C125.836,114.027 126.215,114.215 126.576,114.555C126.816,114.782 126.989,115.027 127.093,115.293C127.198,115.559 127.227,115.824 127.18,116.088C127.133,116.353 127.016,116.585 126.829,116.784L126.232,116.221C126.402,116.041 126.478,115.847 126.461,115.639C126.444,115.43 126.331,115.227 126.121,115.029C125.925,114.845 125.734,114.743 125.547,114.725C125.359,114.707 125.195,114.773 125.054,114.923C124.935,115.049 124.894,115.21 124.931,115.404C124.968,115.599 125.084,115.862 125.277,116.195C125.47,116.528 125.6,116.822 125.667,117.077C125.733,117.332 125.743,117.561 125.694,117.765C125.646,117.968 125.538,118.158 125.371,118.335C125.1,118.622 124.775,118.747 124.395,118.709C124.014,118.671 123.636,118.474 123.258,118.119C123.009,117.884 122.823,117.621 122.701,117.332C122.579,117.042 122.536,116.761 122.573,116.489C122.611,116.217 122.731,115.973 122.935,115.757L123.534,116.322C123.35,116.517 123.272,116.73 123.3,116.959C123.328,117.189 123.463,117.417 123.705,117.645C123.913,117.842 124.11,117.947 124.294,117.961C124.479,117.976 124.637,117.914 124.768,117.775ZM183.624,115.259L183.052,115.852L179.167,115.036L181.585,117.371L181.013,117.964L177.604,114.672L178.176,114.08L182.076,114.9L179.648,112.555L180.216,111.968L183.624,115.259ZM123.025,114.834L121.732,113.38L120.642,114.348L122.153,116.049L121.662,116.485L119.604,114.17L123.146,111.021L125.189,113.32L124.693,113.761L123.196,112.078L122.218,112.947L123.511,114.402L123.025,114.834ZM184.785,113.825L184.263,114.458L180.608,111.442L181.129,110.81L184.785,113.825ZM185.318,109.564L184.188,111.149L185.375,111.995L186.696,110.143L187.231,110.525L185.432,113.047L181.574,110.296L183.359,107.792L183.9,108.178L182.593,110.011L183.658,110.771L184.788,109.186L185.318,109.564ZM116.184,109.394L120.119,106.753L121.024,108.102C121.322,108.547 121.46,108.946 121.438,109.298C121.416,109.65 121.228,109.944 120.875,110.181C120.694,110.302 120.5,110.362 120.29,110.362C120.081,110.361 119.874,110.294 119.669,110.16C119.754,110.411 119.755,110.648 119.674,110.871C119.592,111.095 119.44,111.281 119.216,111.431C118.847,111.679 118.484,111.751 118.127,111.647C117.769,111.543 117.443,111.27 117.147,110.829L116.184,109.394ZM118.418,108.886L117.188,109.711L117.698,110.47C117.842,110.685 118.007,110.817 118.195,110.866C118.382,110.916 118.57,110.877 118.76,110.75C119.169,110.475 119.237,110.126 118.966,109.702L118.418,108.886ZM186.899,107.545L186.439,108.34L188.017,109.252L187.605,109.965L183.503,107.593L184.337,106.15C184.611,105.677 184.928,105.373 185.289,105.238C185.651,105.104 186.032,105.153 186.435,105.386C186.709,105.544 186.901,105.743 187.009,105.983C187.118,106.222 187.154,106.489 187.116,106.784L189.357,106.85L189.394,106.871L188.952,107.635L186.899,107.545ZM118.921,108.549L119.371,109.219C119.513,109.432 119.673,109.565 119.85,109.621C120.027,109.676 120.203,109.644 120.38,109.526C120.574,109.395 120.678,109.245 120.69,109.077C120.702,108.908 120.63,108.706 120.472,108.472L120.026,107.807L118.921,108.549ZM177.531,57.049L126.994,57.049L126.97,63.256L135.755,63.256C135.994,65.201 137.98,66.72 140.391,66.72C140.776,66.72 141.149,66.681 141.507,66.609C141.503,66.675 141.502,66.742 141.502,66.81C141.502,68.922 143.092,70.636 145.051,70.636C145.079,70.636 145.107,70.635 145.134,70.635L145.134,94.64C143.474,94.77 142.158,96.471 142.158,98.547C142.158,98.905 142.197,99.252 142.27,99.581C141.694,99.398 141.059,99.297 140.393,99.297C138.135,99.297 136.244,100.458 135.767,102.011L126.61,102.011L126.61,108.218L177.148,108.218L177.172,102.011L168.386,102.011C168.147,100.067 166.161,98.547 163.75,98.547C163.366,98.547 162.992,98.586 162.635,98.659C162.638,98.592 162.64,98.525 162.64,98.457C162.64,96.346 161.049,94.632 159.09,94.632C159.062,94.632 159.035,94.632 159.007,94.633L159.007,70.628C160.667,70.498 161.983,68.797 161.983,66.72C161.983,66.362 161.944,66.016 161.871,65.686C162.447,65.869 163.082,65.97 163.749,65.97C166.006,65.97 167.897,64.809 168.374,63.256L177.531,63.256L177.531,57.049ZM119.918,106.426L117.121,107.911C116.676,108.147 116.249,108.192 115.838,108.045C115.427,107.898 115.096,107.588 114.845,107.115C114.591,106.636 114.517,106.187 114.623,105.77C114.729,105.352 115.009,105.023 115.464,104.782L118.258,103.299L118.642,104.023L115.842,105.509C115.563,105.658 115.387,105.842 115.314,106.062C115.242,106.283 115.279,106.531 115.426,106.807C115.723,107.366 116.166,107.489 116.757,107.176L119.534,105.702L119.918,106.426ZM185.865,108.007L186.288,107.275C186.427,107.034 186.475,106.811 186.432,106.606C186.389,106.401 186.263,106.237 186.052,106.116C185.833,105.989 185.627,105.953 185.434,106.008C185.242,106.064 185.072,106.214 184.925,106.46L184.49,107.212L185.865,108.007ZM190.014,105.548L189.659,106.288L185.388,104.234L185.743,103.495L190.014,105.548ZM113.646,102.84L114.482,104.822L113.876,105.077L112.721,102.336L117.088,100.496L117.408,101.255L113.646,102.84ZM190.458,101.715L189.778,103.42L190.66,104.185L190.343,104.98L186.605,101.561L186.879,100.875L191.945,100.966L191.626,101.764L190.458,101.715ZM184.501,103.097L184.892,102.284L185.39,103.524L185.114,104.095L184.501,103.097ZM189.247,102.959L189.756,101.683L187.675,101.592L189.247,102.959ZM113.923,101.191C113.426,101.295 112.994,101.233 112.627,101.006C112.26,100.779 111.997,100.407 111.837,99.891C111.726,99.531 111.713,99.186 111.799,98.859C111.885,98.531 112.062,98.244 112.331,97.997C112.6,97.751 112.942,97.56 113.356,97.424L113.779,97.293C114.206,97.161 114.606,97.12 114.978,97.171C115.35,97.221 115.668,97.361 115.932,97.589C116.196,97.818 116.385,98.117 116.5,98.488C116.655,98.988 116.644,99.432 116.468,99.82C116.292,100.209 115.964,100.505 115.484,100.708L115.241,99.924C115.555,99.786 115.76,99.619 115.857,99.422C115.954,99.225 115.957,98.979 115.866,98.685C115.76,98.343 115.554,98.119 115.247,98.013C114.94,97.907 114.544,97.926 114.06,98.072L113.658,98.196C113.169,98.348 112.822,98.551 112.619,98.806C112.416,99.061 112.367,99.357 112.472,99.695C112.567,100.004 112.708,100.214 112.895,100.327C113.082,100.439 113.344,100.466 113.68,100.407L113.923,101.191Z" style="fill:white;"/>
                        </g>
                        <g transform="matrix(1.35022,0,0,1.35022,-67.4394,-50.4502)">
                            <path d="M152.071,37.107C179.834,37.107 202.375,59.648 202.375,87.411C202.375,115.175 179.834,137.715 152.071,137.715C124.307,137.715 101.767,115.175 101.767,87.411C101.767,59.648 124.307,37.107 152.071,37.107ZM152.071,39.31C178.619,39.31 200.173,60.863 200.173,87.411C200.173,113.96 178.619,135.513 152.071,135.513C125.522,135.513 103.969,113.96 103.969,87.411C103.969,60.863 125.522,39.31 152.071,39.31Z" style="fill:white;"/>
                        </g>
                    </g>
                </g>
            </g>
        </g>
    </g>
</svg>
